<?xml version="1.0" encoding="utf-8"?>
<!-- Generator: Adobe Illustrator 27.5.0, SVG Export Plug-In . SVG Version: 6.00 Build 0)  -->
<svg version="1.1" id="Layer_1" xmlns="http://www.w3.org/2000/svg" xmlns:xlink="http://www.w3.org/1999/xlink" x="0px" y="0px"
	 viewBox="0 0 4000 4000" style="enable-background:new 0 0 4000 4000;" xml:space="preserve">
<g>
	<rect style="fill-rule:evenodd;clip-rule:evenodd;fill:#FFFFFF;" width="4000" height="4000"/>
	<path style="fill-rule:evenodd;clip-rule:evenodd;fill:#080012;" d="M2101.931,1203.033c-71.31,0-129.113,57.803-129.113,129.108
		c0,273.51-0.003,547.03-0.003,820.544c0,40.682-32.453,73.743-72.898,74.722c-77.098-6.208-143.387-25.635-210.01-65.25
		c-47.933-28.501-91.015-64.345-138.41-93.472v-736.544c0-288.104,221.357-524.47,503.267-548.4l0.765-0.103
		c259.395-32.052,460.928,154.37,610.428,303.868c149.499,149.495,298.998,190.271,298.998,190.271
		c-88.465,48.255-246.138,161.763-380.541,135.912C2422.752,1382.593,2366.952,1223.418,2101.931,1203.033"/>
	<path style="fill-rule:evenodd;clip-rule:evenodd;fill:#080012;" d="M1898.064,2281.794c71.31,0,129.113-57.803,129.113-129.108
		v-671.041h0.005v-152.05c0-40.682,32.452-73.738,72.897-74.722c77.098,6.208,143.387,25.635,210.01,65.255
		c47.933,28.502,91.015,64.342,138.41,93.467v68.05v258.228v412.813c0,288.103-221.357,524.471-503.267,548.4l-0.765,0.103
		c-259.395,32.052-460.928-154.37-610.426-303.868c-149.5-149.495-298.998-190.272-298.998-190.272
		c88.463-48.255,246.137-161.763,380.542-135.906C1577.243,2102.234,1633.043,2261.414,1898.064,2281.794"/>
	<path style="fill-rule:evenodd;clip-rule:evenodd;fill:#080012;" d="M2839.387,2926.992v183.912h-44.802v-110.295l-41.13,110.295
		h-36.152l-41.395-110.555v110.555h-44.802v-183.912h52.923l51.61,127.323l51.088-127.323H2839.387z M2490.424,2926.992v110.031
		c0,11.003,2.707,19.475,8.126,25.413c5.413,5.938,13.36,8.905,23.838,8.905c10.48,0,18.515-2.967,24.1-8.905
		c5.588-5.938,8.385-14.41,8.385-25.413v-110.031h44.802v109.771c0,16.418-3.495,30.303-10.483,41.655
		c-6.987,11.354-16.375,19.91-28.162,25.673c-11.788,5.763-24.932,8.645-39.425,8.645c-14.5,0-27.469-2.838-38.907-8.513
		c-11.437-5.673-20.48-14.235-27.113-25.672c-6.637-11.443-9.958-25.37-9.958-41.788v-109.771H2490.424z M2351.839,3112.737
		c-13.447,0-25.498-2.182-36.152-6.548c-10.653-4.365-19.172-10.832-25.545-19.388c-6.378-8.557-9.737-18.86-10.087-30.912h47.678
		c0.7,6.808,3.057,12.01,7.073,15.585c4.02,3.582,9.26,5.372,15.721,5.372c6.633,0,11.879-1.53,15.719-4.582
		c3.842-3.057,5.765-7.295,5.765-12.708c0-4.54-1.531-8.297-4.588-11.263c-3.052-2.972-6.809-5.415-11.263-7.337
		c-4.455-1.923-10.785-4.106-18.992-6.548c-11.877-3.672-21.567-7.337-29.083-11.008c-7.507-3.667-13.97-9.08-19.385-16.238
		c-5.413-7.162-8.12-16.507-8.12-28.033c0-17.117,6.198-30.52,18.6-40.215c12.402-9.695,28.553-14.542,48.467-14.542
		c20.258,0,36.592,4.847,48.993,14.542c12.397,9.695,19.034,23.188,19.908,40.473h-48.468c-0.35-5.933-2.532-10.605-6.548-14.012
		c-4.02-3.407-9.17-5.112-15.458-5.112c-5.413,0-9.778,1.44-13.095,4.323c-3.322,2.887-4.98,7.03-4.98,12.443
		c0,5.938,2.792,10.568,8.382,13.89c5.593,3.317,14.323,6.897,26.202,10.738c11.872,4.015,21.523,7.862,28.945,11.528
		c7.428,3.67,13.843,8.995,19.256,15.982c5.415,6.989,8.122,15.979,8.122,26.987c0,10.473-2.663,19.993-7.988,28.548
		c-5.33,8.562-13.059,15.373-23.189,20.438C2377.601,3110.205,2365.639,3112.737,2351.839,3112.737z M2190.982,3009.254
		c8.56,0,14.933-2.009,19.123-6.023c4.195-4.015,6.288-9.695,6.288-17.027c0-7.337-2.094-13.017-6.288-17.032
		c-4.19-4.015-10.563-6.023-19.123-6.023h-24.365v46.105H2190.982z M2261.981,2986.204c0,10.653-2.448,20.385-7.333,29.207
		c-4.893,8.82-12.401,15.935-22.535,21.353c-10.128,5.415-22.705,8.122-37.725,8.122h-27.77v66.018h-44.802v-183.912h72.572
		c14.67,0,27.072,2.533,37.205,7.597c10.13,5.065,17.727,12.053,22.792,20.958
		C2259.447,2964.457,2261.981,2974.672,2261.981,2986.204z M2089.331,2926.992v183.912h-44.797v-183.912H2089.331z
		 M2012.314,2926.992v183.912h-44.802v-110.295l-41.13,110.295h-36.151l-41.395-110.555v110.555h-44.802v-183.912h52.922
		l51.61,127.323l51.09-127.323H2012.314z M1707.103,2962.884v37.2h59.992v34.583h-59.992v40.347h67.853v35.89h-112.655v-183.912
		h112.655v35.892H1707.103z M1536.288,3009.779h27.77c8.212,0,14.367-2.008,18.472-6.023c4.107-4.021,6.157-9.695,6.157-17.031
		c0-6.989-2.05-12.487-6.157-16.503c-4.105-4.015-10.26-6.028-18.472-6.028h-27.77V3009.779z M1585.279,3110.904l-38.248-69.425
		h-10.743v69.425h-44.797v-183.912h75.188c14.5,0,26.853,2.533,37.073,7.597c10.213,5.065,17.858,12.01,22.922,20.83
		c5.065,8.822,7.597,18.643,7.597,29.472c0,12.227-3.448,23.14-10.345,32.75c-6.903,9.604-17.075,16.412-30.525,20.432
		l42.443,72.832H1585.279z M1372.554,3071.872c14.668,0,26.413-4.895,35.233-14.675c8.822-9.78,13.228-22.705,13.228-38.773
		c0-16.242-4.407-29.21-13.228-38.905c-8.82-9.69-20.565-14.542-35.233-14.542c-14.85,0-26.68,4.805-35.5,14.408
		c-8.82,9.61-13.228,22.622-13.228,39.038c0,16.243,4.408,29.212,13.228,38.905
		C1345.874,3067.019,1357.704,3071.872,1372.554,3071.872z M1372.554,3112.737c-17.292,0-33.142-4.02-47.552-12.052
		c-14.41-8.031-25.847-19.257-34.323-33.667c-8.465-14.403-12.703-30.604-12.703-48.595c0-17.99,4.238-34.143,12.703-48.467
		c8.477-14.32,19.913-25.498,34.323-33.535c14.41-8.032,30.26-12.052,47.552-12.052c17.29,0,33.137,4.02,47.545,12.052
		c14.415,8.037,25.763,19.215,34.063,33.535c8.292,14.323,12.44,30.477,12.44,48.467c0,17.991-4.19,34.192-12.577,48.595
		c-8.382,14.41-19.733,25.635-34.053,33.667C1405.648,3108.717,1389.844,3112.737,1372.554,3112.737z M2520.099,3150.779h-8.315
		v67.677h10.922v-47.758l38.387,47.758h8.215v-67.677h-10.828v48.146L2520.099,3150.779z M2430.385,3194.38h-28.615l14.31-32.197
		L2430.385,3194.38z M2440.832,3218.455h11.503l-30.358-67.677h-11.797l-30.355,67.677h11.503l6.383-14.212h36.638
		L2440.832,3218.455z M2323.374,3159.382c-6.898-6.832-15.247-10.248-25.045-10.248c-11.083,0-19.785,3.463-26.102,10.395
		c-6.317,6.925-9.472,15.515-9.472,25.767c0,4.638,0.708,8.977,2.125,13.002c1.418,4.025,3.515,7.667,6.283,10.922
		c2.773,3.255,6.492,5.835,11.164,7.738c4.673,1.9,10.012,2.85,16.001,2.85c10.573,0,19.432-3.932,26.59-11.792v-27.752h-28.908
		v9.67h18.855v13.73c-4.771,3.997-10.281,5.995-16.537,5.995c-8.248,0-14.465-2.358-18.657-7.058
		c-4.19-4.705-6.283-10.473-6.283-17.305c-0.065-7.413,2.16-13.635,6.672-18.662c4.512-5.027,10.602-7.54,18.268-7.54
		c3.227,0,6.497,0.628,9.819,1.885c3.316,1.257,6.136,3.042,8.457,5.367L2323.374,3159.382z M2145.491,3185.097
		c0-7.602,2.112-13.792,6.335-18.563c4.219-4.767,10.133-7.152,17.735-7.152c5.222,0.065,9.685,1.403,13.395,4.01
		c3.703,2.613,6.343,5.788,7.927,9.525c1.578,3.742,2.367,7.8,2.367,12.18c0,7.09-1.993,13.005-5.995,17.745
		c-3.992,4.738-9.955,7.105-17.882,7.105c-3.997,0-7.558-0.728-10.687-2.178c-3.123-1.445-5.622-3.384-7.488-5.797
		c-1.87-2.418-3.273-5.06-4.205-7.928C2146.052,3191.177,2145.556,3188.19,2145.491,3185.097z M2169.561,3149.522
		c-10.18,0-18.523,3.335-25.033,10.007c-6.512,6.67-9.767,15.16-9.767,25.473c0,4.578,0.724,8.91,2.174,13.007
		c1.45,4.092,3.548,7.78,6.283,11.068c2.74,3.289,6.365,5.91,10.877,7.88c4.512,1.967,9.605,2.948,15.278,2.948
		c5.67,0,10.762-0.954,15.273-2.854c4.512-1.903,8.137-4.497,10.877-7.78c2.74-3.288,4.833-7.011,6.283-11.17
		c1.45-4.157,2.173-8.555,2.173-13.195c0-9.798-2.995-18.126-8.987-24.992C2188.997,3153.05,2180.522,3149.584,2169.561,3149.522z
		 M2033.739,3150.779v67.677h46.498v-10.053h-35.675v-57.623H2033.739z M1968.486,3160.255c-4.772-7.607-13.182-11.41-25.233-11.41
		c-3.227,0-6.317,0.37-9.283,1.112c-2.962,0.742-5.735,1.852-8.315,3.335c-2.575,1.483-4.64,3.51-6.183,6.09
		c-1.55,2.578-2.32,5.547-2.32,8.895c0,2.773,0.495,5.235,1.497,7.395c0.997,2.158,2.253,3.92,3.77,5.271
		c1.512,1.352,3.497,2.513,5.943,3.482c2.453,0.963,4.787,1.705,7.012,2.22c2.225,0.515,4.88,0.97,7.975,1.357
		c5.413,0.708,9.652,1.885,12.713,3.525c3.062,1.643,4.592,4.175,4.592,7.592c0,2.64-0.883,4.847-2.655,6.623
		c-1.777,1.772-3.883,2.982-6.335,3.624c-2.448,0.643-5.155,0.963-8.122,0.963c-9.667,0-16.692-3.703-21.075-11.115l-8.122,5.413
		c5.542,10.252,15.245,15.374,29.098,15.374c5.03,0,9.557-0.662,13.587-1.985c4.025-1.317,7.445-3.59,10.247-6.812
		s4.205-7.252,4.205-12.085c0-3.61-0.723-6.723-2.173-9.332c-1.45-2.612-3.562-4.672-6.33-6.188c-2.773-1.511-5.58-2.655-8.415-3.43
		c-2.835-0.775-6.25-1.45-10.247-2.031c-5.348-0.77-9.425-1.837-12.231-3.188c-2.802-1.357-4.205-3.51-4.205-6.477
		c0-3.156,1.45-5.656,4.352-7.493c2.9-1.838,6.67-2.76,11.31-2.76c3.543,0.067,6.817,0.762,9.813,2.083
		c3,1.318,5.3,3.142,6.911,5.462L1968.486,3160.255z M1831.591,3160.639c4.192,0,7.38,1.242,9.577,3.722
		c2.188,2.482,3.283,5.4,3.283,8.75c0,3.417-1.095,6.283-3.283,8.603c-2.197,2.325-5.413,3.482-9.67,3.482h-20.595v-24.557H1831.591
		z M1857.311,3216.519l-20.207-22.527c6.252-0.902,10.877-3.302,13.877-7.2c2.995-3.902,4.492-8.527,4.492-13.875
		c0-6.057-2.107-11.263-6.335-15.61c-4.219-4.35-10.067-6.528-17.547-6.528c-3.477,0-8.73-0.02-15.755-0.048
		c-7.025-0.032-12.28-0.052-15.757-0.052v67.777h10.823v-23.395h14.312l20.588,23.395h12.67L1857.311,3216.519z M1723.128,3150.877
		v39.538c0,6.317-1.743,11.198-5.22,14.652c-3.477,3.444-7.988,5.007-13.535,4.687c-5.155-0.195-9.312-1.967-12.473-5.32
		c-3.155-3.35-4.733-8.021-4.733-14.018v-39.538h-10.733v39.538c0,9.157,2.66,16.277,7.975,21.37
		c5.32,5.092,11.972,7.733,19.965,7.927c8.575,0.322,15.628-2.083,21.175-7.205c5.542-5.125,8.315-12.487,8.315-22.092v-39.538
		H1723.128z M1555.879,3185.097c0-7.602,2.112-13.792,6.335-18.563c4.22-4.767,10.135-7.152,17.742-7.152
		c5.22,0.065,9.685,1.403,13.393,4.01c3.703,2.613,6.345,5.788,7.927,9.525c1.578,3.742,2.367,7.8,2.367,12.18
		c0,7.09-1.998,13.005-5.995,17.745c-3.997,4.738-9.958,7.105-17.887,7.105c-3.997,0-7.558-0.728-10.682-2.178
		c-3.127-1.445-5.622-3.384-7.493-5.797c-1.865-2.418-3.268-5.06-4.203-7.928C1556.446,3191.177,1555.946,3188.19,1555.879,3185.097
		z M1579.956,3149.522c-10.187,0-18.53,3.335-25.04,10.007c-6.51,6.67-9.765,15.16-9.765,25.473c0,4.578,0.722,8.91,2.173,13.007
		c1.455,4.092,3.547,7.78,6.288,11.068c2.735,3.289,6.363,5.91,10.875,7.88c4.512,1.967,9.605,2.948,15.273,2.948
		c5.675,0,10.763-0.954,15.275-2.854c4.517-1.903,8.14-4.497,10.88-7.78c2.74-3.288,4.833-7.011,6.283-11.17
		c1.45-4.157,2.173-8.555,2.173-13.195c0-9.798-2.995-18.126-8.99-24.992C1599.386,3153.05,1590.911,3149.584,1579.956,3149.522z
		 M1443.553,3150.779h-12.86v0.482l26.102,39.448v27.747h10.828v-27.747l26.877-39.448v-0.482h-13.048l-19.242,29.872
		L1443.553,3150.779z M1205.41,3076.322h58.682v34.582h-103.483v-183.912h44.802V3076.322z"/>
</g>
</svg>
