<?xml version="1.0" encoding="utf-8"?>
<!-- Generator: Adobe Illustrator 27.5.0, SVG Export Plug-In . SVG Version: 6.00 Build 0)  -->
<svg version="1.1" id="Layer_1" xmlns="http://www.w3.org/2000/svg" xmlns:xlink="http://www.w3.org/1999/xlink" x="0px" y="0px"
	 viewBox="0 0 4000 4000" style="enable-background:new 0 0 4000 4000;" xml:space="preserve">
<g>
	<g>
		<rect x="0.5" y="0.5" style="fill:#FFFFFF;" width="3999" height="3999"/>
		<path d="M3999,1v3998H1V1H3999 M4000,0H0v4000h4000V0L4000,0z"/>
	</g>
</g>
<g>
	<g>
		<defs>
			<path id="SVGID_1_" d="M2299.583,1176.513c-606.869,0-538.344-378.756-537.882-464.418c341.747,0,683.491,0,1025.238,0
				c0,366.453,0,732.906,0,1099.36c0,516.123-338.585,874.183-860.585,874.183c-520.913,0-858.034-328.688-858.034-853.791
				c0-25.143,0-50.284,0-75.431c392.076,0,379.83-10.567,521.799,293.591c52.903,113.339,160.935,168.662,336.236,168.662
				c253.115,0,373.229-166.365,373.229-407.214C2299.583,1599.807,2299.583,1388.163,2299.583,1176.513"/>
		</defs>
		<clipPath id="SVGID_00000122721395167593326860000015320086244659898800_">
			<use xlink:href="#SVGID_1_"  style="overflow:visible;"/>
		</clipPath>
		
			<linearGradient id="SVGID_00000048490024115794968700000013125714698173563805_" gradientUnits="userSpaceOnUse" x1="2764.6851" y1="1902.6603" x2="1817.886" y2="1672.1478">
			<stop  offset="0" style="stop-color:#215605"/>
			<stop  offset="1" style="stop-color:#6FAE22"/>
		</linearGradient>
		
			<rect x="1068.32" y="712.095" style="clip-path:url(#SVGID_00000122721395167593326860000015320086244659898800_);fill:url(#SVGID_00000048490024115794968700000013125714698173563805_);" width="1718.62" height="1973.543"/>
	</g>
	<g>
		<defs>
			<path id="SVGID_00000145038388689235533600000000295219276819678123_" d="M2299.583,1176.513c0,0,426.248-23.984,487.356,454.702
				c0-306.374,0-612.746,0-919.12c-341.747,0-683.491,0-1025.238,0C1761.24,797.757,1692.714,1176.513,2299.583,1176.513"/>
		</defs>
		<clipPath id="SVGID_00000085251202674973371790000014290457444372767678_">
			<use xlink:href="#SVGID_00000145038388689235533600000000295219276819678123_"  style="overflow:visible;"/>
		</clipPath>
		
			<linearGradient id="SVGID_00000073690440166887484280000000808900600699090865_" gradientUnits="userSpaceOnUse" x1="2434.6992" y1="1702.703" x2="1934.6426" y2="339.9938">
			<stop  offset="0" style="stop-color:#328A09"/>
			<stop  offset="1" style="stop-color:#EBF855"/>
		</linearGradient>
		
			<rect x="1692.714" y="712.095" style="clip-path:url(#SVGID_00000085251202674973371790000014290457444372767678_);fill:url(#SVGID_00000073690440166887484280000000808900600699090865_);" width="1094.226" height="919.12"/>
	</g>
	<g>
		<defs>
			<path id="SVGID_00000056421287981628753120000002615817586087685028_" d="M2786.94,1811.455
				c-156.268,528.943-729.941,453.752-959.942,400.232c-35.836-5.508-67.89-14.28-96.329-26.353
				c-65.109-27.645-111.27-72.603-140.55-135.327c-141.969-304.158-129.722-293.591-521.799-293.591c0,25.147,0,50.288,0,75.431
				c0,525.104,337.121,853.791,858.034,853.791C2448.355,2685.638,2786.94,2327.578,2786.94,1811.455"/>
		</defs>
		<clipPath id="SVGID_00000109028941941526547100000015788014963541965985_">
			<use xlink:href="#SVGID_00000056421287981628753120000002615817586087685028_"  style="overflow:visible;"/>
		</clipPath>
		
			<linearGradient id="SVGID_00000095310533895498962630000004787679356553765775_" gradientUnits="userSpaceOnUse" x1="2054.9446" y1="2789.6667" x2="1724.448" y2="1299.8157">
			<stop  offset="0" style="stop-color:#328A09"/>
			<stop  offset="1" style="stop-color:#EBF855"/>
		</linearGradient>
		
			<rect x="1068.32" y="1745.849" style="clip-path:url(#SVGID_00000109028941941526547100000015788014963541965985_);fill:url(#SVGID_00000095310533895498962630000004787679356553765775_);" width="1718.62" height="939.789"/>
	</g>
	<defs>
		<filter id="Adobe_OpacityMaskFilter" filterUnits="userSpaceOnUse" x="1068.32" y="1756.371" width="1718.62" height="729.236">
			<feColorMatrix  type="matrix" values="1 0 0 0 0  0 1 0 0 0  0 0 1 0 0  0 0 0 1 0"/>
		</filter>
	</defs>
	
		<mask maskUnits="userSpaceOnUse" x="1068.32" y="1756.371" width="1718.62" height="729.236" id="SVGID_00000098209122986242178080000014415990941304387490_">
		<g style="filter:url(#Adobe_OpacityMaskFilter);">
			
				<linearGradient id="SVGID_00000000182937795472817870000016398873944479982729_" gradientUnits="userSpaceOnUse" x1="942.0642" y1="1377.5591" x2="1256.1539" y2="3089.8586" gradientTransform="matrix(1 0 0 1 754.5362 -516.0574)">
				<stop  offset="0" style="stop-color:#FFFFFF"/>
				<stop  offset="1" style="stop-color:#000000"/>
			</linearGradient>
			
				<rect x="1068.32" y="1756.368" style="fill:url(#SVGID_00000000182937795472817870000016398873944479982729_);" width="1718.62" height="729.244"/>
		</g>
	</mask>
	
		<path style="mask:url(#SVGID_00000098209122986242178080000014415990941304387490_);fill-rule:evenodd;clip-rule:evenodd;fill:#EBF855;" d="
		M1068.32,1756.416c300.887,902.679,1573.752,1019.538,1718.62,55.039c-156.268,528.943-729.941,453.752-959.942,400.232
		c-117.888-18.116-194.811-71.556-236.879-161.68C1448.151,1745.849,1460.397,1756.416,1068.32,1756.416"/>
	<defs>
		
			<filter id="Adobe_OpacityMaskFilter_00000008107234190011446870000002516276282954339003_" filterUnits="userSpaceOnUse" x="1826.998" y="1176.314" width="959.942" height="1072.948">
			<feColorMatrix  type="matrix" values="1 0 0 0 0  0 1 0 0 0  0 0 1 0 0  0 0 0 1 0"/>
		</filter>
	</defs>
	
		<mask maskUnits="userSpaceOnUse" x="1826.998" y="1176.314" width="959.942" height="1072.948" id="SVGID_00000093148010071507145370000006922264950649522343_">
		<g style="filter:url(#Adobe_OpacityMaskFilter_00000008107234190011446870000002516276282954339003_);">
			
				<linearGradient id="SVGID_00000072985440797038497490000017180847404776793250_" gradientUnits="userSpaceOnUse" x1="2400.4966" y1="2003.9515" x2="1046.6919" y2="2366.6921" gradientTransform="matrix(1 0 0 1 808.1838 -532.77)">
				<stop  offset="0" style="stop-color:#FFFFFF"/>
				<stop  offset="1" style="stop-color:#000000"/>
			</linearGradient>
			
				<rect x="1826.998" y="1176.312" style="fill:url(#SVGID_00000072985440797038497490000017180847404776793250_);" width="959.942" height="1072.951"/>
		</g>
	</mask>
	
		<path style="mask:url(#SVGID_00000093148010071507145370000006922264950649522343_);fill-rule:evenodd;clip-rule:evenodd;fill:#215605;" d="
		M2299.583,1176.513c422.037,220.116,461.092,836.721-42.778,852.483c-55.086,117.742-164.012,189.672-330.451,189.672
		c-35.906,0-68.989-2.32-99.357-6.982c230.001,53.521,803.674,128.711,959.942-400.232c0-60.078,0-120.161,0-180.24
		C2725.831,1152.529,2299.583,1176.513,2299.583,1176.513"/>
	<defs>
		
			<filter id="Adobe_OpacityMaskFilter_00000073695416000294408440000003145474897566906009_" filterUnits="userSpaceOnUse" x="2340.015" y="1340.082" width="185.873" height="446.159">
			<feColorMatrix  type="matrix" values="1 0 0 0 0  0 1 0 0 0  0 0 1 0 0  0 0 0 1 0"/>
		</filter>
	</defs>
	
		<mask maskUnits="userSpaceOnUse" x="2340.015" y="1340.082" width="185.873" height="446.159" id="SVGID_00000114070989345669014350000002826400608912381590_">
		<g style="filter:url(#Adobe_OpacityMaskFilter_00000073695416000294408440000003145474897566906009_);">
			
				<linearGradient id="SVGID_00000009559513509029606800000005762495353894969219_" gradientUnits="userSpaceOnUse" x1="1416.1553" y1="1371.3837" x2="1650.7692" y2="2402.3247" gradientTransform="matrix(1 0 0 1 844.4602 -565.5112)">
				<stop  offset="0" style="stop-color:#FFFFFF"/>
				<stop  offset="1" style="stop-color:#000000"/>
			</linearGradient>
			
				<rect x="2340.015" y="1340.081" style="fill:url(#SVGID_00000009559513509029606800000005762495353894969219_);" width="185.876" height="446.16"/>
		</g>
	</mask>
	
		<path style="mask:url(#SVGID_00000114070989345669014350000002826400608912381590_);fill-rule:evenodd;clip-rule:evenodd;fill:#EBF855;" d="
		M2345.456,1786.24c264.976-8.29,216.506-330.403-5.44-446.159C2340.015,1379.344,2348.414,1779.907,2345.456,1786.24"/>
	<path d="M2956.304,3121.22h38.677v-204.805h-44.24l-64.169,88.049l-64.167-88.049h-44.533v204.805h38.673v-148.891l65.338,89.218
		h7.622l66.8-88.926V3121.22z M2701.398,2916.415v117.492c0,35.161-18.168,56.55-50.106,56.55c-31.932,0-53.03-19.63-53.03-56.55
		v-117.492h-38.384v117.492c0,61.823,41.9,91.707,91.124,91.707c51.566,0,88.78-31.055,88.78-91.707v-117.492H2701.398z
		 M2523.552,2949.817c-15.531-31.641-48.638-40.726-80.576-40.726c-37.799,0.293-79.401,17.579-79.401,59.771
		c0,46.001,38.673,57.136,80.572,62.115c27.251,2.93,47.467,10.844,47.467,30.181c0,22.265-22.853,30.763-47.175,30.763
		c-24.902,0-48.634-9.962-57.718-32.522l-32.23,16.7c15.233,37.506,47.463,50.397,89.362,50.397
		c45.708,0,86.144-19.63,86.144-65.338c0-48.931-39.851-60.066-82.629-65.342c-24.609-2.926-45.708-7.91-45.708-25.779
		c0-15.238,13.774-27.251,42.485-27.251c22.268,0,41.607,11.135,48.639,22.853L2523.552,2949.817z M2264.831,2915.831
		c-32.229-0.293-64.46,0-96.689,0v205.39h38.675v-60.359h58.014C2365.331,3060.862,2365.038,2915.831,2264.831,2915.831z
		 M2206.817,2952.747h58.014c49.224,0,49.516,72.665,0,72.665h-58.014V2952.747z M2131.81,3121.22v-205.39h-38.38v205.39H2131.81z
		 M1958.942,3121.22h38.677v-204.805h-44.242l-64.167,88.049l-64.168-88.049h-44.533v204.805h38.673v-148.891l65.338,89.218h7.62
		l66.802-88.926V3121.22z M1750.329,3083.131h-115.146v-46.293h111.044V3000.8h-111.044v-47.467h115.146v-37.502h-153.531
		c0,68.464,0,137.121,0,205.39h153.531V3083.131z M1497.47,2951.869c24.321,0,35.161,16.456,35.161,32.963
		c0,16.505-10.548,32.96-35.161,32.96h-58.893v-65.924H1497.47z M1581.561,3118.583l-62.114-70.023
		c38.968-7.914,51.859-36.332,51.859-64.608c0-35.598-25.491-67.829-73.836-68.12c-32.522,0.291-65.045,0-97.565,0v205.39h38.672
		v-68.561h37.213l59.771,68.561h46V3118.583z M1266.003,2947.182c48.345,0,67.683,38.672,67.097,73.248
		c-0.59,33.693-18.752,70.028-67.097,70.028c-48.345,0-66.509-36.042-67.391-69.735
		C1197.734,2986.151,1217.658,2947.182,1266.003,2947.182z M1266.003,2912.023c-70.906,0-105.477,54.201-105.477,108.115
		c0,53.913,33.401,105.77,105.477,105.77s104.599-53.031,105.185-106.063C1371.777,2966.224,1336.616,2912.023,1266.003,2912.023z
		 M1004.352,2915.831v205.39h144.159v-35.745h-105.482v-169.645H1004.352z"/>
	<path d="M2810.062,3248.775l-47.319-59.963h-14.764v96.707h18.212v-65.205l50.767,65.205h11.312v-96.707h-18.207V3248.775z
		 M2676.311,3250.339h-35.869l17.935-41.202L2676.311,3250.339z M2691.761,3285.518h19.867l-43.317-96.707h-19.868l-43.318,96.707
		h19.731l8.277-18.211h50.491L2691.761,3285.518z M2570.846,3200.951c-9.933-9.793-22.903-14.76-35.871-14.76
		c-34.074,0-51.042,25.106-51.042,52.285c0,25.383,14.76,49.251,51.042,49.251c16.969,0,28.971-6.486,38.488-17.386v-40.696h-41.385
		v16.28h24.693v17.109c-7.585,6.07-14.208,7.724-21.795,7.724c-24.003,0-33.248-16.419-33.248-32.282
		c0-19.868,12.555-35.594,33.248-35.594c8.414,0,18.072,3.448,24.557,9.658L2570.846,3200.951z M2398.191,3203.573
		c22.766,0,31.868,18.211,31.591,34.491c-0.275,15.863-8.826,32.972-31.591,32.972c-22.763,0-31.313-16.969-31.73-32.836
		C2366.048,3221.921,2375.428,3203.573,2398.191,3203.573z M2398.191,3187.016c-33.385,0-49.665,25.525-49.665,50.908
		s15.73,49.803,49.665,49.803c33.938,0,49.25-24.971,49.528-49.941C2447.994,3212.541,2431.439,3187.016,2398.191,3187.016z
		 M2248.304,3188.812v96.707h67.876v-16.832h-49.664v-79.875H2248.304z M2204.505,3204.815c-7.313-14.9-22.901-19.177-37.938-19.177
		c-17.799,0.141-37.386,8.278-37.386,28.145c0,21.66,18.207,26.899,37.934,29.244c12.833,1.383,22.349,5.107,22.349,14.211
		c0,10.486-10.759,14.487-22.208,14.487c-11.725,0-22.902-4.689-27.18-15.313l-15.173,7.862
		c7.171,17.658,22.349,23.727,42.076,23.727c21.523,0,40.56-9.24,40.56-30.763c0-23.038-18.765-28.281-38.906-30.763
		c-11.59-1.379-21.523-3.725-21.523-12.143c0-7.171,6.488-12.828,20.004-12.828c10.488,0,19.591,5.244,22.902,10.759
		L2204.505,3204.815z M2061.786,3267.583h-54.214v-21.795h52.285v-16.969h-52.285v-22.349h54.214v-17.659h-72.289
		c0,32.235,0,64.565,0,96.707h72.289V3267.583z M1927.763,3285.518h18.207v-96.429h-20.83l-30.214,41.454l-30.209-41.454h-20.969
		v96.429h18.207v-70.104l30.765,42.007h3.585l31.456-41.871V3285.518z M1754.004,3203.573c22.766,0,31.87,18.211,31.593,34.491
		c-0.276,15.863-8.828,32.972-31.593,32.972c-22.761,0-31.312-16.969-31.729-32.836
		C1721.862,3221.921,1731.243,3203.573,1754.004,3203.573z M1754.004,3187.016c-33.385,0-49.664,25.525-49.664,50.908
		s15.73,49.803,49.664,49.803c33.937,0,49.251-24.971,49.528-49.941C1803.809,3212.541,1787.253,3187.016,1754.004,3187.016z
		 M1664.818,3204.815c-7.311-14.9-22.901-19.177-37.938-19.177c-17.799,0.141-37.386,8.278-37.386,28.145
		c0,21.66,18.207,26.899,37.934,29.244c12.833,1.383,22.35,5.107,22.35,14.211c0,10.486-10.761,14.487-22.209,14.487
		c-11.726,0-22.903-4.689-27.179-15.313l-15.173,7.862c7.172,17.658,22.349,23.727,42.075,23.727c21.523,0,40.56-9.24,40.56-30.763
		c0-23.038-18.765-28.281-38.904-30.763c-11.59-1.379-21.523-3.725-21.523-12.143c0-7.171,6.486-12.828,20.002-12.828
		c10.488,0,19.591,5.244,22.903,10.759L1664.818,3204.815z M1547.07,3267.583h-54.215v-21.795h52.286v-16.969h-52.286v-22.349
		h54.215v-17.659h-72.29c0,32.235,0,64.565,0,96.707h72.29V3267.583z M1437.19,3188.812h-20.42l-22.073,69.76l-24.14-69.76h-11.867
		l-23.45,69.76l-22.766-69.76h-20.417l35.454,96.707h15.453l11.725-30.121l10.07-30.811l10.21,30.534l12.002,30.398h15.45
		L1437.19,3188.812z M1242.19,3250.339h-35.869l17.935-41.202L1242.19,3250.339z M1257.641,3285.518h19.866l-43.318-96.707h-19.866
		l-43.319,96.707h19.731l8.279-18.211h50.489L1257.641,3285.518z"/>
</g>
</svg>
